<svg width="16" height="16" viewBox="0 0 16 16" fill="none" xmlns="http://www.w3.org/2000/svg">
<path d="M4.923 2.83286C5.23076 2.26394 5.69016 1.79143 6.2502 1.46778C6.81024 1.14414 7.44901 0.98202 8.09561 0.999422C8.7422 1.01683 9.37133 1.21307 9.91315 1.56637C10.455 1.91967 10.8883 2.41621 11.165 3.00086C10.4366 3.01739 9.72883 3.24569 9.12806 3.65786C8.52729 4.07003 8.05956 4.64824 7.782 5.32186C7.52621 4.89539 7.21964 4.50151 6.869 4.14886C6.30556 3.59575 5.64615 3.14981 4.923 2.83286ZM14.992 6.99986C15.049 6.1464 14.8126 5.29909 14.3221 4.59834C13.8316 3.89759 13.1164 3.38547 12.295 3.14686C12.0255 2.29297 11.5074 1.53884 10.8071 0.980882C10.1068 0.422922 9.25596 0.0864768 8.36343 0.0145505C7.4709 -0.0573758 6.57719 0.138485 5.79655 0.577097C5.01591 1.01571 4.38379 1.67715 3.981 2.47686C3.58318 2.3532 3.17807 2.25435 2.768 2.18086C2.07439 2.05603 1.37074 1.99544 0.666 1.99986C0.604641 2.00098 0.543302 2.00298 0.482 2.00586H0.478C0.355752 2.01322 0.240433 2.0651 0.153835 2.1517C0.0672363 2.23829 0.0153566 2.35361 0.0079999 2.47586V2.47686C-0.000273594 2.70111 -0.000607064 2.92559 0.00699997 3.14986C0.02 3.55886 0.0629999 4.12686 0.179 4.76886C0.302 5.45086 0.51 6.23286 0.864 6.99886H0.5C0.367392 6.99886 0.240215 7.05154 0.146447 7.14531C0.0526785 7.23908 0 7.36625 0 7.49886V7.99886C0 8.68886 0.0880001 9.35886 0.252 9.99886H15.748C15.916 9.34549 16.0007 8.67349 16 7.99886V7.49886C16 7.36625 15.9473 7.23908 15.8536 7.14531C15.7598 7.05154 15.6326 6.99886 15.5 6.99886L14.992 6.99986ZM1.984 6.99986C1.55 6.21786 1.302 5.36086 1.164 4.59186C1.06956 4.06676 1.0154 3.53521 1.002 3.00186L1.116 3.00586C1.488 3.01886 2.006 3.05886 2.59 3.16486C3.77 3.37786 5.156 3.84986 6.162 4.85586C6.778 5.47186 7.195 6.23186 7.475 6.99986H5.708L3.854 5.14586C3.80751 5.09944 3.75234 5.06263 3.69162 5.03753C3.63091 5.01243 3.56584 4.99954 3.50015 4.99958C3.43445 4.99963 3.3694 5.01262 3.30873 5.0378C3.24805 5.06298 3.19292 5.09987 3.1465 5.14636C3.10008 5.19285 3.06327 5.24803 3.03817 5.30874C3.01307 5.36945 3.00018 5.43452 3.00022 5.50021C3.00027 5.56591 3.01325 5.63096 3.03844 5.69164C3.06362 5.75232 3.10051 5.80744 3.147 5.85386L4.294 6.99986H1.984ZM8.532 6.99986C8.52317 6.97281 8.51417 6.9458 8.505 6.91886C8.48324 6.5416 8.53947 6.1639 8.67017 5.80933C8.80088 5.45476 9.00326 5.13094 9.26468 4.85806C9.5261 4.58519 9.84096 4.36913 10.1896 4.22335C10.5382 4.07758 10.9132 4.00522 11.291 4.0108C11.6689 4.01638 12.0415 4.09978 12.3857 4.25578C12.7299 4.41179 13.0383 4.63706 13.2915 4.91753C13.5448 5.198 13.7375 5.52766 13.8577 5.88593C13.9778 6.24421 14.0229 6.6234 13.99 6.99986H8.532ZM8 15.9999C6.40622 15.9998 4.84875 15.5239 3.52715 14.6331C2.20556 13.7423 1.18004 12.4772 0.582 10.9999H15.419C14.8209 12.4773 13.7952 13.7426 12.4734 14.6334C11.1516 15.5242 9.59395 16 8 15.9999Z" fill="#1A1C1E"/>
</svg>
