<svg width="20" height="20" viewBox="0 0 20 20" fill="none" xmlns="http://www.w3.org/2000/svg">
<g clip-path="url(#clip0_39_53607)">
<path d="M15.05 19.1668H16.4333C17.1333 19.1668 17.7083 18.6252 17.7917 17.9418L19.1667 4.2085H15V0.833496H13.3583V4.2085H9.21668L9.46668 6.1585C10.8917 6.55016 12.225 7.2585 13.025 8.04183C14.225 9.22516 15.05 10.4502 15.05 12.4502V19.1668ZM0.833344 18.3335V17.5002H13.3583V18.3335C13.3583 18.7835 12.9833 19.1668 12.5 19.1668H1.66668C1.20834 19.1668 0.833344 18.7835 0.833344 18.3335ZM13.3583 12.5002C13.3583 5.8335 0.833344 5.8335 0.833344 12.5002H13.3583ZM0.833344 14.1668H13.3333V15.8335H0.833344V14.1668Z" fill="#1A1C1E"/>
</g>
<defs>
<clipPath id="clip0_39_53607">
<rect width="20" height="20" fill="white"/>
</clipPath>
</defs>
</svg>
