<svg width="20" height="20" viewBox="0 0 20 20" fill="none" xmlns="http://www.w3.org/2000/svg">
<path d="M17.5 8.1251H16.8461C16.6891 6.41797 15.8999 4.8311 14.6334 3.67574C13.3668 2.52038 11.7143 1.87988 10 1.87988C8.28566 1.87988 6.63318 2.52038 5.36665 3.67574C4.10012 4.8311 3.31095 6.41797 3.15391 8.1251H2.5C2.33424 8.1251 2.17527 8.19095 2.05806 8.30816C1.94085 8.42537 1.875 8.58434 1.875 8.7501C1.87775 10.2364 2.28679 11.6938 3.0579 12.9644C3.82901 14.2351 4.93283 15.2708 6.25 15.9595V16.2501C6.25 16.5816 6.3817 16.8996 6.61612 17.134C6.85054 17.3684 7.16848 17.5001 7.5 17.5001H12.5C12.8315 17.5001 13.1495 17.3684 13.3839 17.134C13.6183 16.8996 13.75 16.5816 13.75 16.2501V15.9595C15.0672 15.2708 16.171 14.2351 16.9421 12.9644C17.7132 11.6938 18.1223 10.2364 18.125 8.7501C18.125 8.58434 18.0592 8.42537 17.9419 8.30816C17.8247 8.19095 17.6658 8.1251 17.5 8.1251ZM13.5531 4.39307C13.6964 4.51026 13.8336 4.63396 13.9648 4.76416C12.3011 5.34944 10.9262 6.55229 10.125 8.12354H7.82031C8.21094 7.02856 8.93011 6.08089 9.87956 5.40998C10.829 4.73907 11.9624 4.37766 13.125 4.3751C13.268 4.3751 13.4109 4.38213 13.5531 4.39307ZM11.5719 8.1251C12.3296 6.98829 13.476 6.16691 14.7961 5.81494C15.2277 6.51702 15.4985 7.30595 15.5891 8.1251H11.5719ZM10 3.1251C10.5015 3.12543 11.0008 3.19296 11.4844 3.32588C10.3066 3.61805 9.22663 4.21552 8.35334 5.05809C7.48005 5.90065 6.8443 6.95853 6.51016 8.1251H4.41094C4.56597 6.75077 5.22135 5.48156 6.25212 4.55943C7.28288 3.6373 8.61696 3.12675 10 3.1251Z" fill="#1A1C1E"/>
</svg>
