<svg width="18" height="18" viewBox="0 0 18 18" fill="none" xmlns="http://www.w3.org/2000/svg">
<path d="M10.4416 1.92471L11.9083 4.85804C12.1083 5.26637 12.6416 5.65804 13.0916 5.73304L15.7499 6.17471C17.4499 6.45804 17.8499 7.69137 16.6249 8.90804L14.5583 10.9747C14.2083 11.3247 14.0166 11.9997 14.1249 12.483L14.7166 15.0414C15.1833 17.0664 14.1083 17.8497 12.3166 16.7914L9.82492 15.3164C9.37492 15.0497 8.63326 15.0497 8.17492 15.3164L5.68326 16.7914C3.89992 17.8497 2.81659 17.058 3.28326 15.0414L3.87492 12.483C3.98326 11.9997 3.79159 11.3247 3.44159 10.9747L1.37492 8.90804C0.158257 7.69137 0.549924 6.45804 2.24992 6.17471L4.90826 5.73304C5.34992 5.65804 5.88326 5.26637 6.08326 4.85804L7.54992 1.92471C8.34992 0.33304 9.64992 0.33304 10.4416 1.92471Z" fill="#EA7E41"/>
</svg>
