<svg width="18" height="18" viewBox="0 0 18 18" fill="none" xmlns="http://www.w3.org/2000/svg">
<path d="M2.3775 5.58008L8.99999 9.41257L15.5775 5.60255" stroke="#6C7278" stroke-width="1.5" stroke-linecap="round" stroke-linejoin="round"/>
<path d="M9 16.2078V9.40527" stroke="#6C7278" stroke-width="1.5" stroke-linecap="round" stroke-linejoin="round"/>
<path d="M7.44749 1.86L3.4425 4.08752C2.535 4.59002 1.79251 5.85001 1.79251 6.88501V11.1225C1.79251 12.1575 2.535 13.4175 3.4425 13.92L7.44749 16.1475C8.30249 16.62 9.70499 16.62 10.56 16.1475L14.565 13.92C15.4725 13.4175 16.215 12.1575 16.215 11.1225V6.88501C16.215 5.85001 15.4725 4.59002 14.565 4.08752L10.56 1.86C9.69749 1.38 8.30249 1.38 7.44749 1.86Z" stroke="#6C7278" stroke-width="1.5" stroke-linecap="round" stroke-linejoin="round"/>
<path d="M12.75 9.93021V7.18523L5.63251 3.0752" stroke="#6C7278" stroke-width="1.5" stroke-linecap="round" stroke-linejoin="round"/>
</svg>
